# xmcd
#
# Track frame offsets:
#	150
#	13844
#	26057
#	38825
#	56654
#	73305
#	86201
#	100675
#	112165
#	125914
#	137874
#	154900
#	170901
#
# Disc length: 2502 seconds
#
# Revision: 1
# Processed by: cddbd v1.5.1PL0 Copyright (c) Steve Scherf et al.
# Submitted via: EasyCDDAExtractor 5.0.7
#
DISCID=c809c40d
DTITLE=Roberto Damian - A tu recuerdo
DYEAR=2005
DGENRE=Ranchero
TTITLE0=Que va a sentir tu marido
TTITLE1=Equivocadamente
TTITLE2=Gema
TTITLE3=Nube Viajera
TTITLE4=Sin Verte
TTITLE5=Necesito Olvidarla
TTITLE6=Fueron tres años
TTITLE7=Que sera de mi
TTITLE8=Me quede con las ganas
TTITLE9=Piel de Niña
TTITLE10=Vamos a platicar
TTITLE11=Abrazame
TTITLE12=Si te vas
EXTD=
EXTT0=
EXTT1=
EXTT2=
EXTT3=
EXTT4=
EXTT5=
EXTT6=
EXTT7=
EXTT8=
EXTT9=
EXTT10=
EXTT11=
EXTT12=
PLAYORDER=
